<svg width="32" height="32" viewBox="0 0 32 32" fill="none" xmlns="http://www.w3.org/2000/svg">
<path fill-rule="evenodd" clip-rule="evenodd" d="M2.08694 19.7187V20.0626H14.3216V18.5495C13.4265 19.3101 12.1984 19.5754 10.3413 19.5754H7.58983C6.4434 19.5754 6.09947 19.0881 6.09947 17.7411V2.89475C6.09947 0.802504 7.04528 0.315271 8.421 0.315271V0H2.08694V0.315271C3.46267 0.315271 4.40848 0.802504 4.40848 2.89475V17.1679C4.40848 19.2601 3.46267 19.7187 2.08694 19.7187ZM14.8433 18.0039V20.0626H15.3856L16.5013 15.2187C16.3637 15.27 16.2219 15.3166 16.0759 15.3582C15.7249 16.5095 15.3408 17.3706 14.8433 18.0039Z" fill="#EC6408"/>
<path fill-rule="evenodd" clip-rule="evenodd" d="M12.5217 31.2935V31.6375H18.8558V31.2935C17.5231 31.2935 16.5938 30.8632 16.537 28.9343C16.5352 28.8733 16.5343 28.8068 16.5343 28.7427V22.7526H17.738C19.6583 22.7813 20.9194 23.6697 21.8079 25.1315L25.7057 31.6375H29.8329V31.2935C28.2279 31.2935 27.2248 30.8063 26.1356 29.0293L23.6135 24.8448C22.6104 23.1825 21.1487 22.7526 19.7729 22.7526L20.7761 22.7239C21.8437 22.7239 22.7572 22.5412 23.5271 22.2264C25.7403 21.3213 26.7652 19.3242 26.8467 17.4377C26.8503 17.3557 26.8522 17.2739 26.8522 17.1924C26.8522 14.6129 25.1039 11.5749 20.6614 11.5749H19.7289C19.6936 11.7372 19.6488 11.9 19.5946 12.0621H20.2888C24.1007 12.0621 25.0465 14.9568 25.0752 17.2211C25.1039 19.4853 24.1007 22.208 20.5468 22.2367L16.5343 22.2654V15.2063L16.5013 15.2187C16.3637 15.27 16.222 15.3166 16.0759 15.3583C15.6938 15.4672 15.2829 15.5418 14.8433 15.5755V18.0039V20.0626V28.7427C14.8433 28.8052 14.8424 28.8663 14.8407 28.9259L14.8406 28.9343C14.7838 30.8632 13.8544 31.2935 12.5217 31.2935ZM19.0415 12.0621C19.1029 11.9002 19.1535 11.7373 19.1936 11.5749H18.9485C18.9006 11.7407 18.8399 11.9035 18.7668 12.0621H19.0415ZM12.5217 11.5749H18.4001C18.3422 11.7411 18.2686 11.9042 18.1798 12.0621H16.5343V13.5176C16.0433 13.7349 15.4686 13.8712 14.816 13.8947C14.6519 12.2857 13.7613 11.8901 12.5217 11.8901V11.5749ZM14.843 14.4157C15.4668 14.3922 16.0332 14.2733 16.5343 14.0806V14.6434C16.0379 14.8553 15.4744 14.9995 14.8433 15.0521V14.4696C14.8433 14.4515 14.8432 14.4336 14.843 14.4157Z" fill="#EC6408"/>
<path d="M14.3024 15.0743C11.605 15.0743 9.61058 13.4231 9.67597 11.2816C9.74136 9.33617 11.3925 7.76678 13.436 7.53791C12.4388 7.42348 11.6377 6.60608 11.6541 5.52713C11.7194 3.79426 13.5504 2.53548 15.3814 2.53548C16.8527 2.53548 17.9643 3.35287 17.9316 4.31739C17.9153 4.85687 17.572 5.13478 17.1796 5.13478C16.82 5.13478 16.5257 4.92226 16.5421 4.49722C16.5584 4.10487 16.8527 4.00678 16.869 3.63078C16.9017 3.22209 16.3949 2.748 15.4141 2.748C13.9918 2.748 12.6676 3.82695 12.5859 5.49443C12.5532 6.4753 13.2725 7.29269 14.4005 7.39078V7.58695C12.1608 7.66869 10.7713 9.23808 10.7059 11.02C10.6568 12.7856 12.1445 14.4203 14.613 14.4203C17.2941 14.4203 18.9779 12.6875 19.076 10.8238C19.1414 9.27078 18.1605 8.04469 16.7055 8.04469C15.5285 8.04469 15.0054 8.89478 14.989 9.40156C14.9727 9.53235 15.0054 9.67948 15.1852 9.63043C15.316 9.61408 15.4304 9.49965 15.7083 9.49965C16.068 9.49965 16.3786 9.77756 16.3622 10.1863C16.3459 10.644 16.0189 10.8729 15.6593 10.8729C15.0544 10.8729 14.6948 10.3007 14.7111 9.61408C14.7438 8.55148 15.6429 7.40713 17.3594 7.40713C18.1441 7.40713 18.6019 7.636 19.2558 7.636C20.2203 7.636 21.0377 7.09652 21.0541 6.42626C21.0541 6.27913 20.9887 6.18104 20.8415 6.21374C20.6944 6.23009 20.629 6.31182 20.3674 6.31182C19.9751 6.31182 19.6645 6.05026 19.6808 5.62522C19.6808 5.16748 20.0405 4.93861 20.3838 4.93861C20.9887 4.93861 21.3483 5.51078 21.3156 6.18104C21.2829 7.27635 20.2857 8.40435 18.9288 8.40435C18.5201 8.40435 18.1768 8.30626 17.9643 8.22452C18.9288 8.7313 19.3375 9.77756 19.3048 10.7911C19.285 11.3729 19.1184 11.9969 18.8037 12.5838C18.4304 13.2801 17.8486 13.9241 17.056 14.3826C16.8912 14.478 16.7173 14.5653 16.5343 14.6434C16.0379 14.8553 15.4744 14.9995 14.8433 15.0521C14.6742 15.0662 14.5004 15.0737 14.3216 15.0742C14.3152 15.0743 14.3088 15.0743 14.3024 15.0743Z" fill="#293E61"/>
</svg>
